<svg xmlns="http://www.w3.org/2000/svg" width="800" height="800" viewBox="0 0 800 800"><defs><linearGradient x1="0" y1="0" x2="1" y2="0" gradientUnits="userSpaceOnUse" gradientTransform="scale(431.52117 -431.52117) rotate(6.564 7.354 1.385)" spreadMethod="pad" id="b"><stop offset="0" stop-color="#1aaeec"/><stop offset=".2" stop-color="#4253a7"/><stop offset=".4" stop-color="#e70c8d"/><stop offset=".6" stop-color="#e33c47"/><stop offset=".8" stop-color="#f6e12c"/><stop offset="1" stop-color="#14ab69"/></linearGradient><clipPath clipPathUnits="userSpaceOnUse" id="a"><path d="M0 600h600V0H0z"/></clipPath></defs><g clip-path="url(#a)" transform="matrix(1.33333 0 0 -1.33333 0 800)"><path d="M386.085 408.862c-5.029-11.707-9.36-25.358-12.543-41.024-.316-1.591-.622-3.211-.934-4.857l10.529 4.397c1.092 6.353 2.325 12.3 3.736 17.819 1.874 7.308 4.104 14.127 6.656 20.452 8.003 19.847 22.891 37.925 35.507 54.636-16.655-12.689-34.669-27.654-54.479-35.746-6.313-2.582-13.124-4.841-20.418-6.748-5.512-1.444-11.458-2.696-17.805-3.815l-4.348-10.554c1.645.313 3.261.637 4.853.962 15.648 3.252 29.283 7.633 40.963 12.72a169.709 169.709 0 0116.526 8.317 169.044 169.044 0 01-8.243-16.559m68.707 64.519c-8.36-21.676-34.197-45.703-44.182-74.956-2.283-6.691-4.101-13.999-5.478-21.886l13.06 5.444a136.578 136.578 0 003.017 12.014c4.958 16.305 13.863 30.831 22.916 44.427 9.056 13.61 16.921 25.716 18.103 35.414.8 6.842-2.717 11.561-5.774 13.983-2.45 3.055-7.181 6.547-14.016 5.712-9.692-1.216-21.764-9.139-35.328-18.259-13.562-9.106-28.046-18.078-44.329-23.106-3.805-1.177-7.808-2.196-11.996-3.075l-5.391-13.087c7.88 1.419 15.181 3.266 21.866 5.585 29.206 10.107 53.121 36.056 74.753 44.514 5.654 2.205 10.357 1.972 13.504.785 1.206-3.14 1.454-7.851-.725-13.509M349.121 369.287c-1.808-5.834-3.587-11.967-5.349-18.317l10.076 4.193c.378 1.532.738 3.038 1.112 4.528 1.94 7.797 3.947 15.103 6.126 21.82 1.893 5.859 4.026 11.456 6.248 16.8-5.339-2.253-10.918-4.405-16.768-6.331-6.711-2.204-14.006-4.245-21.79-6.216a483.036 483.036 0 00-4.525-1.127l-4.148-10.096c6.342 1.79 12.468 3.583 18.295 5.425 5.745 1.819 11.213 3.709 16.36 5.709-1.972-5.159-3.849-10.637-5.637-16.388m-35.494-30.888l10.949 4.562c2.249 6.274 4.648 12.918 7.154 19.578-6.654-2.531-13.286-4.957-19.547-7.232l-4.519-10.977c2.686 1.112 6.12 2.539 10.115 4.204-1.637-4.006-3.052-7.448-4.152-10.135m-6.277-2.614l-1.236 1.02c-.341.414-.695.83-1.036 1.244 0 0-.685-1.649-1.599-3.882l3.871 1.618m1.728 109.611c4.721-11.839 11.313-24.548 20.136-37.876a627.11 627.11 0 012.772-4.098l4.337 10.555c-3.723 5.266-7.052 10.344-9.959 15.241-3.849 6.492-7.093 12.894-9.76 19.171-8.374 19.688-10.624 42.999-13.516 63.738-2.817-20.746-4.963-44.067-13.248-63.802-2.64-6.288-5.856-12.698-9.673-19.207-2.87-4.915-6.188-10.006-9.891-15.282l4.389-10.54a404.49 404.49 0 012.751 4.112c8.772 13.361 15.315 26.101 19.975 37.959a171.16 171.16 0 015.799 17.569 168.615 168.615 0 015.888-17.54m2.958 94.208c9.413-21.241 8.132-56.5 21.756-84.249 3.116-6.34 6.997-12.796 11.602-19.349l5.391 13.087a138.384 138.384 0 00-6.361 10.627c-8.026 15.032-12.002 31.602-15.211 47.62-3.221 16.027-6.22 30.146-12.248 37.84-4.269 5.409-10.094 6.253-13.964 5.807-3.89.428-9.712-.45-13.954-5.872-5.991-7.712-8.931-21.851-12.062-37.89-3.157-16.031-7.048-32.62-15.011-47.683-1.866-3.523-3.977-7.079-6.305-10.664l5.439-13.058c4.561 6.57 8.427 13.038 11.504 19.405 13.515 27.802 12.077 63.059 21.384 84.337 2.447 5.554 5.934 8.717 9 10.099 3.072-1.365 6.58-4.522 9.04-10.057m-1.116-148.33c2.848-5.406 5.929-10.999 9.169-16.731l4.162 10.085-2.422 3.991c-4.14 6.887-7.884 13.468-11.087 19.759-2.812 5.481-5.265 10.949-7.465 16.294-2.183-5.363-4.608-10.832-7.384-16.328-3.192-6.306-6.898-12.907-11.014-19.803a290.029 290.029 0 00-2.403-3.998l4.214-10.072c3.206 5.749 6.278 11.351 9.099 16.775 2.772 5.342 5.3 10.551 7.527 15.601 2.248-5.042 4.799-10.24 7.604-15.573m-3.256-46.937l4.518 10.964c-2.844 6.028-5.848 12.423-8.786 18.905-2.917-6.499-5.892-12.903-8.718-18.935l4.568-10.958c1.113 2.687 2.541 6.12 4.193 10.124 1.672-3.991 3.098-7.424 4.225-10.1m-2.586-6.288c-.541-.051-1.084-.102-1.599-.157-.53.054-1.074.096-1.618.152 0 0 .683-1.652 1.618-3.877a895.907 895.907 0 001.599 3.882m-76.294 78.724c11.708-5.031 25.359-9.361 41.017-12.543 1.598-.317 3.224-.625 4.864-.934l-4.403 10.529c-6.346 1.091-12.301 2.325-17.819 3.737-7.302 1.872-14.12 4.103-20.446 6.653-19.846 8.004-37.925 22.893-54.642 35.508 12.688-16.654 27.66-34.668 35.751-54.478 2.584-6.313 4.843-13.125 6.75-20.419 1.442-5.513 2.688-11.457 3.808-17.803l10.566-4.351a453.285 453.285 0 01-.969 4.855c-3.25 15.648-7.631 29.283-12.72 40.962a168.33 168.33 0 01-8.322 16.528 168.928 168.928 0 0116.565-8.244m-64.518 68.707c21.681-8.362 45.695-34.197 74.962-44.182 6.678-2.283 13.998-4.103 21.88-5.478l-5.439 13.058c-4.202.86-8.2 1.869-12.019 3.018-16.299 4.958-30.831 13.864-44.435 22.918-13.603 9.055-25.708 16.918-35.407 18.101-6.849.801-11.568-2.716-13.983-5.774-3.055-2.448-6.547-7.179-5.712-14.014 1.217-9.694 9.14-21.767 18.259-35.329 9.105-13.562 18.078-28.047 23.106-44.329 1.183-3.808 2.197-7.809 3.082-11.997l13.073-5.389c-1.411 7.879-3.265 15.18-5.578 21.865-10.106 29.205-36.055 53.119-44.515 74.753-2.203 5.653-1.97 10.356-.778 13.502 3.14 1.206 7.845 1.455 13.504-.723m104.093-105.67c5.834-1.811 11.967-3.588 18.317-5.35l-4.188 10.075c-1.537.379-3.05.739-4.534 1.111-7.789 1.941-15.101 3.948-21.819 6.127-5.851 1.893-11.448 4.024-16.793 6.247 2.253-5.337 4.398-10.917 6.325-16.766 2.202-6.712 4.244-14.008 6.216-21.791.378-1.491.754-2.994 1.128-4.525l10.094-4.148c-1.79 6.341-3.59 12.471-5.426 18.297-1.819 5.742-3.708 11.212-5.715 16.36 5.16-1.974 10.651-3.851 16.395-5.637m30.887-35.497l-4.555 10.95c-6.281 2.249-12.918 4.647-19.584 7.155 2.532-6.654 4.958-13.285 7.225-19.548l10.977-4.518c-1.112 2.686-2.538 6.12-4.196 10.116 4.005-1.64 7.447-3.054 10.133-4.155m2.615-6.275c-.342-.416-.685-.833-1.012-1.237-.415-.342-.831-.696-1.245-1.036 0 0 1.636-.684 3.875-1.598-.935 2.225-1.618 3.871-1.618 3.871m-109.618 1.721c11.839 4.721 24.562 11.312 37.89 20.142 1.35.896 2.703 1.826 4.084 2.773l-10.542 4.333c-5.265-3.72-10.351-7.049-15.254-9.955-6.484-3.843-12.887-7.086-19.156-9.755-19.696-8.38-43.015-10.629-63.74-13.529 20.74-2.802 44.06-4.962 63.795-13.248 6.289-2.632 12.699-5.856 19.201-9.665 4.921-2.877 10.019-6.197 15.289-9.892l10.541 4.389a284.057 284.057 0 01-4.12 2.752c-13.355 8.765-26.095 15.309-37.952 19.974a169.32 169.32 0 01-17.569 5.799 170.848 170.848 0 0117.533 5.882m-94.201 2.964c21.248 9.414 56.5 8.133 84.249 21.756 6.348 3.122 12.797 7.003 19.342 11.604l-13.073 5.389a135.547 135.547 0 00-10.634-6.362c-15.032-8.025-31.607-12-47.614-15.211-16.032-3.22-30.151-6.218-37.852-12.24-5.397-4.276-6.253-10.1-5.801-13.971-.421-3.897.451-9.705 5.872-13.953 7.712-5.993 21.858-8.925 37.896-12.07 16.025-3.149 32.606-7.046 47.676-15.004 3.524-1.859 7.073-3.97 10.664-6.31l13.059 5.443c-6.576 4.568-13.045 8.428-19.403 11.512-27.804 13.507-63.061 12.063-84.338 21.383-5.562 2.436-8.71 5.927-10.1 8.995 1.359 3.072 4.522 6.581 10.057 9.039m148.33-1.117c5.405 2.849 10.999 5.93 16.732 9.169l-10.093 4.163c-1.341-.816-2.666-1.629-3.977-2.417-6.894-4.143-13.475-7.889-19.766-11.097-5.482-2.807-10.948-5.253-16.294-7.466 5.363-2.177 10.833-4.603 16.328-7.378 6.306-3.184 12.914-6.899 19.81-11.015a532.938 532.938 0 003.998-2.395l10.063 4.201c-5.752 3.221-11.349 6.283-16.773 9.105-5.348 2.773-10.55 5.306-15.601 7.529 5.043 2.254 10.24 4.798 15.573 7.601m46.937-3.254l-10.964 4.517c-6.022-2.852-12.424-5.854-18.91-8.786 6.497-2.918 12.908-5.893 18.948-8.711l10.949 4.568a3632.446 3632.446 0 01-10.13 4.181c3.997 1.671 7.432 3.104 10.107 4.231m6.294-2.594c.045-.534.104-1.07.152-1.591-.062-.536-.098-1.081-.147-1.618 0 0 1.646.681 3.871 1.618-2.225.912-3.876 1.591-3.876 1.591m-78.73-76.287c5.031 11.708 9.362 25.359 12.544 41.024.317 1.592.624 3.211.934 4.857l-10.528-4.397c-1.093-6.352-2.326-12.3-3.739-17.819-1.872-7.308-4.103-14.126-6.653-20.45-8.004-19.849-22.893-37.927-35.506-54.637 16.653 12.688 34.667 27.652 54.477 35.746 6.313 2.582 13.125 4.84 20.419 6.749 5.512 1.442 11.457 2.694 17.804 3.813l4.348 10.554a342.06 342.06 0 01-4.853-.963c-15.649-3.251-29.284-7.632-40.964-12.72a169.46 169.46 0 01-16.525-8.316 169.036 169.036 0 018.242 16.559m-68.707-64.518c8.362 21.675 34.198 45.701 44.182 74.956 2.283 6.692 4.103 13.998 5.478 21.885l-13.059-5.443a136.4 136.4 0 00-3.017-12.014c-4.958-16.306-13.864-30.831-22.917-44.428-9.056-13.608-16.919-25.716-18.103-35.414-.8-6.843 2.717-11.561 5.775-13.982 2.45-3.055 7.179-6.548 14.015-5.712 9.693 1.216 21.765 9.14 35.329 18.259 13.562 9.104 28.047 18.078 44.327 23.105 3.807 1.177 7.809 2.196 11.998 3.074l5.391 13.088c-7.881-1.419-15.181-3.265-21.866-5.585-29.205-10.106-53.12-36.056-74.753-44.514-5.654-2.204-10.357-1.971-13.503-.785-1.207 3.141-1.455 7.852.723 13.51m105.671 104.093c1.809 5.835 3.587 11.967 5.349 18.317l-10.076-4.193c-.377-1.531-.737-3.038-1.11-4.529-1.942-7.796-3.948-15.102-6.128-21.819-1.893-5.857-4.023-11.455-6.246-16.801 5.337 2.254 10.917 4.406 16.767 6.333 6.711 2.202 14.007 4.245 21.791 6.216 1.49.378 2.994.754 4.524 1.127l4.149 10.096c-6.342-1.79-12.471-3.585-18.297-5.427-5.743-1.818-11.212-3.707-16.36-5.708 1.973 5.158 3.85 10.637 5.637 16.388m35.495 30.888l-10.949-4.562c-2.249-6.274-4.648-12.917-7.156-19.577 6.657 2.531 13.287 4.957 19.55 7.231l4.519 10.976c-2.687-1.11-6.12-2.538-10.116-4.202 1.638 4.006 3.052 7.448 4.152 10.134m6.276 2.615l1.238-1.02c.34-.415.693-.83 1.035-1.246 0 0 .685 1.651 1.598 3.884-2.223-.931-3.871-1.618-3.871-1.618m-1.727-109.612c-4.721 11.839-11.313 24.548-20.136 37.876a627.11 627.11 0 01-2.772 4.098l-4.336-10.556c3.722-5.264 7.051-10.343 9.958-15.24 3.849-6.491 7.092-12.895 9.759-19.172 8.375-19.687 10.625-42.999 13.519-63.737 2.815 20.745 4.961 44.066 13.246 63.802 2.642 6.289 5.856 12.698 9.673 19.207 2.87 4.916 6.188 10.008 9.891 15.282l-4.388 10.541a416.22 416.22 0 01-2.752-4.112c-8.772-13.362-15.314-26.101-19.975-37.96a171.296 171.296 0 01-5.798-17.568 168.92 168.92 0 01-5.889 17.539m-2.958-94.208c-9.414 21.242-8.132 56.5-21.757 84.249-3.116 6.341-6.995 12.796-11.601 19.349l-5.391-13.088a137.56 137.56 0 006.362-10.626c8.024-15.032 12.001-31.601 15.21-47.62 3.221-16.027 6.22-30.145 12.247-37.847 4.271-5.395 10.094-6.252 13.965-5.799 3.89-.435 9.712.451 13.952 5.871 5.993 7.712 8.934 21.851 12.064 37.89 3.157 16.032 7.047 32.62 15.011 47.683 1.865 3.523 3.976 7.078 6.304 10.662l-5.437 13.061c-4.561-6.571-8.427-13.039-11.505-19.406-13.515-27.801-12.077-63.057-21.384-84.337-2.446-5.546-5.933-8.709-9-10.099-3.071 1.372-6.582 4.523-9.04 10.057m1.116 148.332c-2.848 5.405-5.93 10.998-9.169 16.73l-4.161-10.087 2.422-3.989c4.138-6.889 7.884-13.47 11.086-19.76 2.812-5.481 5.264-10.95 7.465-16.293 2.183 5.362 4.609 10.832 7.382 16.327 3.193 6.307 6.9 12.907 11.015 19.803.781 1.324 1.58 2.653 2.405 3.998l-4.216 10.071c-3.205-5.747-6.278-11.349-9.098-16.774-2.772-5.342-5.301-10.551-7.529-15.601-2.246 5.043-4.797 10.24-7.602 15.575m3.256 46.935l-4.517-10.964c2.844-6.028 5.846-12.423 8.785-18.903 2.918 6.497 5.892 12.901 8.717 18.934l-4.568 10.957c-1.112-2.686-2.54-6.12-4.192-10.123-1.672 3.99-3.1 7.423-4.225 10.099m2.586 6.287c.541.052 1.083.104 1.599.158.53-.053 1.075-.096 1.618-.152 0 0-.682 1.653-1.619 3.878-.913-2.233-1.598-3.884-1.598-3.884m76.296-78.722c-11.709 5.03-25.361 9.36-41.018 12.542-1.599.317-3.226.626-4.864.935l4.402-10.529c6.347-1.092 12.3-2.325 17.821-3.738 7.299-1.872 14.117-4.102 20.444-6.653 19.847-8.003 37.925-22.892 54.643-35.507-12.69 16.653-27.661 34.667-35.753 54.478-2.584 6.312-4.84 13.125-6.749 20.419-1.443 5.513-2.688 11.457-3.807 17.803l-10.567 4.35c.32-1.644.643-3.263.967-4.854 3.253-15.65 7.633-29.284 12.721-40.963a168.629 168.629 0 018.322-16.526 169.317 169.317 0 01-16.562 8.243m64.515-68.707c-21.681 8.362-45.693 34.197-74.962 44.181-6.677 2.283-13.997 4.104-21.878 5.479l5.437-13.061a135.256 135.256 0 0012.021-3.017c16.298-4.956 30.83-13.863 44.433-22.917 13.604-9.054 25.708-16.918 35.408-18.101 6.848-.802 11.568 2.716 13.982 5.774 3.055 2.45 6.547 7.179 5.714 14.015-1.217 9.694-9.143 21.766-18.261 35.329-9.106 13.562-18.078 28.046-23.105 44.327-1.183 3.807-2.197 7.811-3.082 11.999l-13.073 5.389c1.411-7.88 3.265-15.182 5.577-21.865 10.106-29.206 36.057-53.12 44.515-74.754 2.203-5.653 1.97-10.355.778-13.502-3.139-1.205-7.845-1.455-13.504.724m-104.091 105.67c-5.835 1.81-11.969 3.587-18.319 5.349l4.19-10.075c1.537-.377 3.049-.739 4.533-1.11 7.79-1.942 15.102-3.949 21.819-6.128 5.851-1.892 11.447-4.023 16.793-6.247-2.254 5.338-4.398 10.917-6.325 16.767-2.202 6.711-4.244 14.006-6.216 21.791a544.147 544.147 0 00-1.128 4.524l-10.094 4.149c1.79-6.342 3.59-12.472 5.426-18.297 1.819-5.743 3.708-11.213 5.715-16.36-5.16 1.974-10.652 3.851-16.394 5.637m-30.889 35.496l4.558-10.949c6.277-2.25 12.917-4.648 19.582-7.157-2.532 6.656-4.957 13.286-7.226 19.55l-10.976 4.518c1.111-2.688 2.538-6.12 4.196-10.116-4.005 1.639-7.448 3.054-10.134 4.154m-2.614 6.276c.343.415.686.832 1.012 1.237.415.341.831.695 1.246 1.035 0 0-1.638.685-3.877 1.599.937-2.225 1.619-3.871 1.619-3.871m109.618-1.722c-11.838-4.721-24.562-11.311-37.891-20.141-1.348-.897-2.702-1.827-4.083-2.773l10.542-4.335c5.265 3.722 10.351 7.05 15.254 9.956 6.485 3.844 12.887 7.086 19.156 9.755 19.696 8.38 43.014 10.629 63.742 13.53-20.743 2.801-44.063 4.961-63.795 13.247-6.292 2.633-12.701 5.856-19.203 9.665-4.921 2.878-10.019 6.197-15.29 9.892l-10.54-4.389a283.921 283.921 0 014.12-2.751c13.355-8.765 26.094-15.308 37.953-19.968a168.095 168.095 0 0117.568-5.807 170.439 170.439 0 01-17.533-5.881m94.2-2.964c-21.248-9.413-56.499-8.132-84.247-21.756-6.35-3.123-12.798-7.002-19.343-11.603l13.073-5.389a136.677 136.677 0 0010.632 6.361c15.033 8.025 31.609 12.001 47.615 15.21 16.034 3.221 30.153 6.22 37.853 12.241 5.397 4.277 6.254 10.1 5.799 13.971.423 3.897-.449 9.706-5.87 13.954-7.713 5.992-21.86 8.925-37.898 12.07-16.024 3.149-32.605 7.046-47.674 15.003-3.525 1.86-7.073 3.969-10.664 6.311l-13.06-5.444c6.575-4.569 13.046-8.428 19.403-11.511 27.805-13.508 63.061-12.063 84.34-21.384 5.561-2.436 8.71-5.927 10.099-8.994-1.358-3.073-4.522-6.581-10.058-9.04m-148.329 1.116c-5.405-2.848-10.999-5.929-16.731-9.168l10.092-4.163c1.341.817 2.667 1.63 3.977 2.417 6.894 4.144 13.474 7.89 19.766 11.098 5.482 2.807 10.949 5.253 16.293 7.465-5.362 2.178-10.832 4.603-16.328 7.378-6.306 3.185-12.913 6.899-19.807 11.015a526.317 526.317 0 00-4.001 2.395l-10.063-4.201c5.753-3.221 11.349-6.282 16.774-9.105 5.349-2.772 10.549-5.307 15.601-7.528-5.043-2.254-10.24-4.798-15.573-7.603m-46.937 3.256l10.964-4.517c6.022 2.852 12.424 5.853 18.911 8.786-6.499 2.917-12.91 5.893-18.949 8.71l-10.95-4.568c2.686-1.113 6.126-2.534 10.13-4.181-3.996-1.67-7.43-3.104-10.106-4.23m-10.171 4.185c2.226.936 3.871 1.618 3.871 1.618-.047-.537-.084-1.083-.146-1.618.048-.521.107-1.057.153-1.592l-3.878 1.592" fill="url(#b)"/></g></svg>