<?xml version="1.0" encoding="UTF-8" standalone="no"?>
<!-- Created with Inkscape (http://www.inkscape.org/) -->

<svg
   xmlns:dc="http://purl.org/dc/elements/1.1/"
   xmlns:cc="http://creativecommons.org/ns#"
   xmlns:rdf="http://www.w3.org/1999/02/22-rdf-syntax-ns#"
   xmlns:svg="http://www.w3.org/2000/svg"
   xmlns="http://www.w3.org/2000/svg"
   xmlns:sodipodi="http://sodipodi.sourceforge.net/DTD/sodipodi-0.dtd"
   xmlns:inkscape="http://www.inkscape.org/namespaces/inkscape"
   version="1.1"
   id="svg24550"
   xml:space="preserve"
   width="800"
   height="800"
   viewBox="0 0 800 800"
   sodipodi:docname="star-colorful-publicdomainvectors.org.svg"
   inkscape:version="0.92.4 (5da689c313, 2019-01-14)"><metadata
     id="metadata24556"><rdf:RDF><cc:Work
         rdf:about=""><dc:format>image/svg+xml</dc:format><dc:type
           rdf:resource="http://purl.org/dc/dcmitype/StillImage" /><dc:title></dc:title></cc:Work></rdf:RDF></metadata><defs
     id="defs24554"><clipPath
       clipPathUnits="userSpaceOnUse"
       id="clipPath24566"><path
         d="M 0,600 H 600 V 0 H 0 Z"
         id="path24564"
         inkscape:connector-curvature="0" /></clipPath><linearGradient
       x1="0"
       y1="0"
       x2="1"
       y2="0"
       gradientUnits="userSpaceOnUse"
       gradientTransform="matrix(428.69284,-49.325134,-49.325134,-428.69284,89.131836,358.82861)"
       spreadMethod="pad"
       id="linearGradient24592"><stop
         style="stop-opacity:1;stop-color:#1aaeec"
         offset="0"
         id="stop24580" /><stop
         style="stop-opacity:1;stop-color:#4253a7"
         offset="0.2"
         id="stop24582" /><stop
         style="stop-opacity:1;stop-color:#e70c8d"
         offset="0.4"
         id="stop24584" /><stop
         style="stop-opacity:1;stop-color:#e33c47"
         offset="0.6"
         id="stop24586" /><stop
         style="stop-opacity:1;stop-color:#f6e12c"
         offset="0.8"
         id="stop24588" /><stop
         style="stop-opacity:1;stop-color:#14ab69"
         offset="1"
         id="stop24590" /></linearGradient></defs><sodipodi:namedview
     pagecolor="#ffffff"
     bordercolor="#666666"
     borderopacity="1"
     objecttolerance="10"
     gridtolerance="10"
     guidetolerance="10"
     inkscape:pageopacity="0"
     inkscape:pageshadow="2"
     inkscape:window-width="724"
     inkscape:window-height="480"
     id="namedview24552"
     showgrid="false"
     inkscape:zoom="0.295"
     inkscape:cx="400"
     inkscape:cy="400"
     inkscape:window-x="0"
     inkscape:window-y="0"
     inkscape:window-maximized="0"
     inkscape:current-layer="g24558" /><g
     id="g24558"
     inkscape:groupmode="layer"
     inkscape:label="star-colorful-publicdomainvectors.org"
     transform="matrix(1.3333333,0,0,-1.3333333,0,800)"><g
       id="g24560"><g
         id="g24562"
         clip-path="url(#clipPath24566)"><g
           id="g24568"><g
             id="g24570"><g
               id="g24576"><g
                 id="g24578"><path
                   d="m 386.085,408.862 c -5.029,-11.707 -9.36,-25.358 -12.543,-41.024 -0.316,-1.591 -0.622,-3.211 -0.934,-4.857 l 10.529,4.397 c 1.092,6.353 2.325,12.3 3.736,17.819 1.874,7.308 4.104,14.127 6.656,20.452 8.003,19.847 22.891,37.925 35.507,54.636 -16.655,-12.689 -34.669,-27.654 -54.479,-35.746 -6.313,-2.582 -13.124,-4.841 -20.418,-6.748 -5.512,-1.444 -11.458,-2.696 -17.805,-3.815 l -4.348,-10.554 c 1.645,0.313 3.261,0.637 4.853,0.962 15.648,3.252 29.283,7.633 40.963,12.72 5.684,2.482 11.204,5.264 16.526,8.317 -3.025,-5.333 -5.792,-10.864 -8.243,-16.559 m 68.707,64.519 c -8.36,-21.676 -34.197,-45.703 -44.182,-74.956 -2.283,-6.691 -4.101,-13.999 -5.478,-21.886 l 13.06,5.444 c 0.859,4.196 1.868,8.201 3.017,12.014 4.958,16.305 13.863,30.831 22.916,44.427 9.056,13.61 16.921,25.716 18.103,35.414 0.8,6.842 -2.717,11.561 -5.774,13.983 -2.45,3.055 -7.181,6.547 -14.016,5.712 -9.692,-1.216 -21.764,-9.139 -35.328,-18.259 -13.562,-9.106 -28.046,-18.078 -44.329,-23.106 -3.805,-1.177 -7.808,-2.196 -11.996,-3.075 l -5.391,-13.087 c 7.88,1.419 15.181,3.266 21.866,5.585 29.206,10.107 53.121,36.056 74.753,44.514 5.654,2.205 10.357,1.972 13.504,0.785 1.206,-3.14 1.454,-7.851 -0.725,-13.509 M 349.121,369.287 c -1.808,-5.834 -3.587,-11.967 -5.349,-18.317 l 10.076,4.193 c 0.378,1.532 0.738,3.038 1.112,4.528 1.94,7.797 3.947,15.103 6.126,21.82 1.893,5.859 4.026,11.456 6.248,16.8 -5.339,-2.253 -10.918,-4.405 -16.768,-6.331 -6.711,-2.204 -14.006,-4.245 -21.79,-6.216 -1.491,-0.378 -2.996,-0.755 -4.525,-1.127 l -4.148,-10.096 c 6.342,1.79 12.468,3.583 18.295,5.425 5.745,1.819 11.213,3.709 16.36,5.709 -1.972,-5.159 -3.849,-10.637 -5.637,-16.388 m -35.494,-30.888 10.949,4.562 c 2.249,6.274 4.648,12.918 7.154,19.578 -6.654,-2.531 -13.286,-4.957 -19.547,-7.232 l -4.519,-10.977 c 2.686,1.112 6.12,2.539 10.115,4.204 -1.637,-4.006 -3.052,-7.448 -4.152,-10.135 m -6.277,-2.614 c -0.415,0.343 -0.831,0.686 -1.236,1.02 -0.341,0.414 -0.695,0.83 -1.036,1.244 0,0 -0.685,-1.649 -1.599,-3.882 2.225,0.93 3.871,1.618 3.871,1.618 m 1.728,109.611 c 4.721,-11.839 11.313,-24.548 20.136,-37.876 0.904,-1.351 1.832,-2.717 2.772,-4.098 l 4.337,10.555 c -3.723,5.266 -7.052,10.344 -9.959,15.241 -3.849,6.492 -7.093,12.894 -9.76,19.171 -8.374,19.688 -10.624,42.999 -13.516,63.738 -2.817,-20.746 -4.963,-44.067 -13.248,-63.802 -2.64,-6.288 -5.856,-12.698 -9.673,-19.207 -2.87,-4.915 -6.188,-10.006 -9.891,-15.282 l 4.389,-10.54 c 0.937,1.386 1.857,2.754 2.751,4.112 8.772,13.361 15.315,26.101 19.975,37.959 2.259,5.776 4.193,11.643 5.799,17.569 1.638,-5.917 3.589,-11.782 5.888,-17.54 m 2.958,94.208 c 9.413,-21.241 8.132,-56.5 21.756,-84.249 3.116,-6.34 6.997,-12.796 11.602,-19.349 l 5.391,13.087 c -2.361,3.575 -4.472,7.121 -6.361,10.627 -8.026,15.032 -12.002,31.602 -15.211,47.62 -3.221,16.027 -6.22,30.146 -12.248,37.84 -4.269,5.409 -10.094,6.253 -13.964,5.807 -3.89,0.428 -9.712,-0.45 -13.954,-5.872 -5.991,-7.712 -8.931,-21.851 -12.062,-37.89 -3.157,-16.031 -7.048,-32.62 -15.011,-47.683 -1.866,-3.523 -3.977,-7.079 -6.305,-10.664 l 5.439,-13.058 c 4.561,6.57 8.427,13.038 11.504,19.405 13.515,27.802 12.077,63.059 21.384,84.337 2.447,5.554 5.934,8.717 9,10.099 3.072,-1.365 6.58,-4.522 9.04,-10.057 m -1.116,-148.33 c 2.848,-5.406 5.929,-10.999 9.169,-16.731 l 4.162,10.085 c -0.823,1.355 -1.622,2.673 -2.422,3.991 -4.14,6.887 -7.884,13.468 -11.087,19.759 -2.812,5.481 -5.265,10.949 -7.465,16.294 -2.183,-5.363 -4.608,-10.832 -7.384,-16.328 -3.192,-6.306 -6.898,-12.907 -11.014,-19.803 -0.782,-1.323 -1.578,-2.652 -2.403,-3.998 l 4.214,-10.072 c 3.206,5.749 6.278,11.351 9.099,16.775 2.772,5.342 5.3,10.551 7.527,15.601 2.248,-5.042 4.799,-10.24 7.604,-15.573 m -3.256,-46.937 4.518,10.964 c -2.844,6.028 -5.848,12.423 -8.786,18.905 -2.917,-6.499 -5.892,-12.903 -8.718,-18.935 l 4.568,-10.958 c 1.113,2.687 2.541,6.12 4.193,10.124 1.672,-3.991 3.098,-7.424 4.225,-10.1 m -2.586,-6.288 c -0.541,-0.051 -1.084,-0.102 -1.599,-0.157 -0.53,0.054 -1.074,0.096 -1.618,0.152 0,0 0.683,-1.652 1.618,-3.877 0.914,2.233 1.599,3.882 1.599,3.882 m -76.294,78.724 c 11.708,-5.031 25.359,-9.361 41.017,-12.543 1.598,-0.317 3.224,-0.625 4.864,-0.934 l -4.403,10.529 c -6.346,1.091 -12.301,2.325 -17.819,3.737 -7.302,1.872 -14.12,4.103 -20.446,6.653 -19.846,8.004 -37.925,22.893 -54.642,35.508 12.688,-16.654 27.66,-34.668 35.751,-54.478 2.584,-6.313 4.843,-13.125 6.75,-20.419 1.442,-5.513 2.688,-11.457 3.808,-17.803 l 10.566,-4.351 c -0.319,1.644 -0.642,3.263 -0.969,4.855 -3.25,15.648 -7.631,29.283 -12.72,40.962 -2.481,5.685 -5.263,11.204 -8.322,16.528 5.333,-3.025 10.87,-5.794 16.565,-8.244 m -64.518,68.707 c 21.681,-8.362 45.695,-34.197 74.962,-44.182 6.678,-2.283 13.998,-4.103 21.88,-5.478 l -5.439,13.058 c -4.202,0.86 -8.2,1.869 -12.019,3.018 -16.299,4.958 -30.831,13.864 -44.435,22.918 -13.603,9.055 -25.708,16.918 -35.407,18.101 -6.849,0.801 -11.568,-2.716 -13.983,-5.774 -3.055,-2.448 -6.547,-7.179 -5.712,-14.014 1.217,-9.694 9.14,-21.767 18.259,-35.329 9.105,-13.562 18.078,-28.047 23.106,-44.329 1.183,-3.808 2.197,-7.809 3.082,-11.997 l 13.073,-5.389 c -1.411,7.879 -3.265,15.18 -5.578,21.865 -10.106,29.205 -36.055,53.119 -44.515,74.753 -2.203,5.653 -1.97,10.356 -0.778,13.502 3.14,1.206 7.845,1.455 13.504,-0.723 M 268.359,379.81 c 5.834,-1.811 11.967,-3.588 18.317,-5.35 l -4.188,10.075 c -1.537,0.379 -3.05,0.739 -4.534,1.111 -7.789,1.941 -15.101,3.948 -21.819,6.127 -5.851,1.893 -11.448,4.024 -16.793,6.247 2.253,-5.337 4.398,-10.917 6.325,-16.766 2.202,-6.712 4.244,-14.008 6.216,-21.791 0.378,-1.491 0.754,-2.994 1.128,-4.525 l 10.094,-4.148 c -1.79,6.341 -3.59,12.471 -5.426,18.297 -1.819,5.742 -3.708,11.212 -5.715,16.36 5.16,-1.974 10.651,-3.851 16.395,-5.637 m 30.887,-35.497 -4.555,10.95 c -6.281,2.249 -12.918,4.647 -19.584,7.155 2.532,-6.654 4.958,-13.285 7.225,-19.548 l 10.977,-4.518 c -1.112,2.686 -2.538,6.12 -4.196,10.116 4.005,-1.64 7.447,-3.054 10.133,-4.155 m 2.615,-6.275 c -0.342,-0.416 -0.685,-0.833 -1.012,-1.237 -0.415,-0.342 -0.831,-0.696 -1.245,-1.036 0,0 1.636,-0.684 3.875,-1.598 -0.935,2.225 -1.618,3.871 -1.618,3.871 m -109.618,1.721 c 11.839,4.721 24.562,11.312 37.89,20.142 1.35,0.896 2.703,1.826 4.084,2.773 l -10.542,4.333 c -5.265,-3.72 -10.351,-7.049 -15.254,-9.955 -6.484,-3.843 -12.887,-7.086 -19.156,-9.755 -19.696,-8.38 -43.015,-10.629 -63.74,-13.529 20.74,-2.802 44.06,-4.962 63.795,-13.248 6.289,-2.632 12.699,-5.856 19.201,-9.665 4.921,-2.877 10.019,-6.197 15.289,-9.892 l 10.541,4.389 c -1.379,0.942 -2.761,1.858 -4.12,2.752 -13.355,8.765 -26.095,15.309 -37.952,19.974 -5.769,2.258 -11.642,4.199 -17.569,5.799 5.911,1.639 11.775,3.59 17.533,5.882 m -94.201,2.964 c 21.248,9.414 56.5,8.133 84.249,21.756 6.348,3.122 12.797,7.003 19.342,11.604 l -13.073,5.389 c -3.582,-2.363 -7.122,-4.481 -10.634,-6.362 -15.032,-8.025 -31.607,-12 -47.614,-15.211 -16.032,-3.22 -30.151,-6.218 -37.852,-12.24 -5.397,-4.276 -6.253,-10.1 -5.801,-13.971 -0.421,-3.897 0.451,-9.705 5.872,-13.953 7.712,-5.993 21.858,-8.925 37.896,-12.07 16.025,-3.149 32.606,-7.046 47.676,-15.004 3.524,-1.859 7.073,-3.97 10.664,-6.31 l 13.059,5.443 c -6.576,4.568 -13.045,8.428 -19.403,11.512 -27.804,13.507 -63.061,12.063 -84.338,21.383 -5.562,2.436 -8.71,5.927 -10.1,8.995 1.359,3.072 4.522,6.581 10.057,9.039 m 148.33,-1.117 c 5.405,2.849 10.999,5.93 16.732,9.169 l -10.093,4.163 c -1.341,-0.816 -2.666,-1.629 -3.977,-2.417 -6.894,-4.143 -13.475,-7.889 -19.766,-11.097 -5.482,-2.807 -10.948,-5.253 -16.294,-7.466 5.363,-2.177 10.833,-4.603 16.328,-7.378 6.306,-3.184 12.914,-6.899 19.81,-11.015 1.316,-0.781 2.645,-1.576 3.998,-2.395 l 10.063,4.201 c -5.752,3.221 -11.349,6.283 -16.773,9.105 -5.348,2.773 -10.55,5.306 -15.601,7.529 5.043,2.254 10.24,4.798 15.573,7.601 m 46.937,-3.254 -10.964,4.517 c -6.022,-2.852 -12.424,-5.854 -18.91,-8.786 6.497,-2.918 12.908,-5.893 18.948,-8.711 l 10.949,4.568 c -2.685,1.114 -6.125,2.534 -10.13,4.181 3.997,1.671 7.432,3.104 10.107,4.231 m 6.294,-2.594 c 0.045,-0.534 0.104,-1.07 0.152,-1.591 -0.062,-0.536 -0.098,-1.081 -0.147,-1.618 0,0 1.646,0.681 3.871,1.618 -2.225,0.912 -3.876,1.591 -3.876,1.591 m -78.73,-76.287 c 5.031,11.708 9.362,25.359 12.544,41.024 0.317,1.592 0.624,3.211 0.934,4.857 l -10.528,-4.397 c -1.093,-6.352 -2.326,-12.3 -3.739,-17.819 -1.872,-7.308 -4.103,-14.126 -6.653,-20.45 -8.004,-19.849 -22.893,-37.927 -35.506,-54.637 16.653,12.688 34.667,27.652 54.477,35.746 6.313,2.582 13.125,4.84 20.419,6.749 5.512,1.442 11.457,2.694 17.804,3.813 l 4.348,10.554 c -1.643,-0.313 -3.262,-0.636 -4.853,-0.963 -15.649,-3.251 -29.284,-7.632 -40.964,-12.72 -5.684,-2.482 -11.203,-5.262 -16.525,-8.316 3.025,5.334 5.791,10.863 8.242,16.559 m -68.707,-64.518 c 8.362,21.675 34.198,45.701 44.182,74.956 2.283,6.692 4.103,13.998 5.478,21.885 l -13.059,-5.443 c -0.858,-4.197 -1.869,-8.202 -3.017,-12.014 -4.958,-16.306 -13.864,-30.831 -22.917,-44.428 -9.056,-13.608 -16.919,-25.716 -18.103,-35.414 -0.8,-6.843 2.717,-11.561 5.775,-13.982 2.45,-3.055 7.179,-6.548 14.015,-5.712 9.693,1.216 21.765,9.14 35.329,18.259 13.562,9.104 28.047,18.078 44.327,23.105 3.807,1.177 7.809,2.196 11.998,3.074 l 5.391,13.088 c -7.881,-1.419 -15.181,-3.265 -21.866,-5.585 -29.205,-10.106 -53.12,-36.056 -74.753,-44.514 -5.654,-2.204 -10.357,-1.971 -13.503,-0.785 -1.207,3.141 -1.455,7.852 0.723,13.51 m 105.671,104.093 c 1.809,5.835 3.587,11.967 5.349,18.317 L 253.11,313.17 c -0.377,-1.531 -0.737,-3.038 -1.11,-4.529 -1.942,-7.796 -3.948,-15.102 -6.128,-21.819 -1.893,-5.857 -4.023,-11.455 -6.246,-16.801 5.337,2.254 10.917,4.406 16.767,6.333 6.711,2.202 14.007,4.245 21.791,6.216 1.49,0.378 2.994,0.754 4.524,1.127 l 4.149,10.096 c -6.342,-1.79 -12.471,-3.585 -18.297,-5.427 -5.743,-1.818 -11.212,-3.707 -16.36,-5.708 1.973,5.158 3.85,10.637 5.637,16.388 m 35.495,30.888 -10.949,-4.562 c -2.249,-6.274 -4.648,-12.917 -7.156,-19.577 6.657,2.531 13.287,4.957 19.55,7.231 l 4.519,10.976 c -2.687,-1.11 -6.12,-2.538 -10.116,-4.202 1.638,4.006 3.052,7.448 4.152,10.134 m 6.276,2.615 c 0.417,-0.343 0.833,-0.686 1.238,-1.02 0.34,-0.415 0.693,-0.83 1.035,-1.246 0,0 0.685,1.651 1.598,3.884 -2.223,-0.931 -3.871,-1.618 -3.871,-1.618 m -1.727,-109.612 c -4.721,11.839 -11.313,24.548 -20.136,37.876 -0.904,1.351 -1.832,2.717 -2.772,4.098 l -4.336,-10.556 c 3.722,-5.264 7.051,-10.343 9.958,-15.24 3.849,-6.491 7.092,-12.895 9.759,-19.172 8.375,-19.687 10.625,-42.999 13.519,-63.737 2.815,20.745 4.961,44.066 13.246,63.802 2.642,6.289 5.856,12.698 9.673,19.207 2.87,4.916 6.188,10.008 9.891,15.282 l -4.388,10.541 c -0.937,-1.387 -1.858,-2.754 -2.752,-4.112 -8.772,-13.362 -15.314,-26.101 -19.975,-37.96 -2.258,-5.777 -4.193,-11.643 -5.798,-17.568 -1.638,5.916 -3.591,11.781 -5.889,17.539 m -2.958,-94.208 c -9.414,21.242 -8.132,56.5 -21.757,84.249 -3.116,6.341 -6.995,12.796 -11.601,19.349 l -5.391,-13.088 c 2.362,-3.574 4.474,-7.12 6.362,-10.626 8.024,-15.032 12.001,-31.601 15.21,-47.62 3.221,-16.027 6.22,-30.145 12.247,-37.847 4.271,-5.395 10.094,-6.252 13.965,-5.799 3.89,-0.435 9.712,0.451 13.952,5.871 5.993,7.712 8.934,21.851 12.064,37.89 3.157,16.032 7.047,32.62 15.011,47.683 1.865,3.523 3.976,7.078 6.304,10.662 l -5.437,13.061 c -4.561,-6.571 -8.427,-13.039 -11.505,-19.406 -13.515,-27.801 -12.077,-63.057 -21.384,-84.337 -2.446,-5.546 -5.933,-8.709 -9,-10.099 -3.071,1.372 -6.582,4.523 -9.04,10.057 m 1.116,148.332 c -2.848,5.405 -5.93,10.998 -9.169,16.73 l -4.161,-10.087 c 0.823,-1.354 1.622,-2.673 2.422,-3.989 4.138,-6.889 7.884,-13.47 11.086,-19.76 2.812,-5.481 5.264,-10.95 7.465,-16.293 2.183,5.362 4.609,10.832 7.382,16.327 3.193,6.307 6.9,12.907 11.015,19.803 0.781,1.324 1.58,2.653 2.405,3.998 l -4.216,10.071 c -3.205,-5.747 -6.278,-11.349 -9.098,-16.774 -2.772,-5.342 -5.301,-10.551 -7.529,-15.601 -2.246,5.043 -4.797,10.24 -7.602,15.575 m 3.256,46.935 -4.517,-10.964 c 2.844,-6.028 5.846,-12.423 8.785,-18.903 2.918,6.497 5.892,12.901 8.717,18.934 l -4.568,10.957 c -1.112,-2.686 -2.54,-6.12 -4.192,-10.123 -1.672,3.99 -3.1,7.423 -4.225,10.099 m 2.586,6.287 c 0.541,0.052 1.083,0.104 1.599,0.158 0.53,-0.053 1.075,-0.096 1.618,-0.152 0,0 -0.682,1.653 -1.619,3.878 -0.913,-2.233 -1.598,-3.884 -1.598,-3.884 m 76.296,-78.722 c -11.709,5.03 -25.361,9.36 -41.018,12.542 -1.599,0.317 -3.226,0.626 -4.864,0.935 l 4.402,-10.529 c 6.347,-1.092 12.3,-2.325 17.821,-3.738 7.299,-1.872 14.117,-4.102 20.444,-6.653 19.847,-8.003 37.925,-22.892 54.643,-35.507 -12.69,16.653 -27.661,34.667 -35.753,54.478 -2.584,6.312 -4.84,13.125 -6.749,20.419 -1.443,5.513 -2.688,11.457 -3.807,17.803 l -10.567,4.35 c 0.32,-1.644 0.643,-3.263 0.967,-4.854 3.253,-15.65 7.633,-29.284 12.721,-40.963 2.482,-5.685 5.264,-11.203 8.322,-16.526 -5.332,3.025 -10.87,5.792 -16.562,8.243 m 64.515,-68.707 c -21.681,8.362 -45.693,34.197 -74.962,44.181 -6.677,2.283 -13.997,4.104 -21.878,5.479 l 5.437,-13.061 c 4.204,-0.857 8.201,-1.866 12.021,-3.017 16.298,-4.956 30.83,-13.863 44.433,-22.917 13.604,-9.054 25.708,-16.918 35.408,-18.101 6.848,-0.802 11.568,2.716 13.982,5.774 3.055,2.45 6.547,7.179 5.714,14.015 -1.217,9.694 -9.143,21.766 -18.261,35.329 -9.106,13.562 -18.078,28.046 -23.105,44.327 -1.183,3.807 -2.197,7.811 -3.082,11.999 l -13.073,5.389 c 1.411,-7.88 3.265,-15.182 5.577,-21.865 10.106,-29.206 36.057,-53.12 44.515,-74.754 2.203,-5.653 1.97,-10.355 0.778,-13.502 -3.139,-1.205 -7.845,-1.455 -13.504,0.724 m -104.091,105.67 c -5.835,1.81 -11.969,3.587 -18.319,5.349 l 4.19,-10.075 c 1.537,-0.377 3.049,-0.739 4.533,-1.11 7.79,-1.942 15.102,-3.949 21.819,-6.128 5.851,-1.892 11.447,-4.023 16.793,-6.247 -2.254,5.338 -4.398,10.917 -6.325,16.767 -2.202,6.711 -4.244,14.006 -6.216,21.791 -0.378,1.491 -0.754,2.994 -1.128,4.524 l -10.094,4.149 c 1.79,-6.342 3.59,-12.472 5.426,-18.297 1.819,-5.743 3.708,-11.213 5.715,-16.36 -5.16,1.974 -10.652,3.851 -16.394,5.637 m -30.889,35.496 4.558,-10.949 c 6.277,-2.25 12.917,-4.648 19.582,-7.157 -2.532,6.656 -4.957,13.286 -7.226,19.55 l -10.976,4.518 c 1.111,-2.688 2.538,-6.12 4.196,-10.116 -4.005,1.639 -7.448,3.054 -10.134,4.154 m -2.614,6.276 c 0.343,0.415 0.686,0.832 1.012,1.237 0.415,0.341 0.831,0.695 1.246,1.035 0,0 -1.638,0.685 -3.877,1.599 0.937,-2.225 1.619,-3.871 1.619,-3.871 m 109.618,-1.722 c -11.838,-4.721 -24.562,-11.311 -37.891,-20.141 -1.348,-0.897 -2.702,-1.827 -4.083,-2.773 l 10.542,-4.335 c 5.265,3.722 10.351,7.05 15.254,9.956 6.485,3.844 12.887,7.086 19.156,9.755 19.696,8.38 43.014,10.629 63.742,13.53 -20.743,2.801 -44.063,4.961 -63.795,13.247 -6.292,2.633 -12.701,5.856 -19.203,9.665 -4.921,2.878 -10.019,6.197 -15.29,9.892 l -10.54,-4.389 c 1.379,-0.941 2.761,-1.858 4.12,-2.751 13.355,-8.765 26.094,-15.308 37.953,-19.968 5.768,-2.264 11.641,-4.206 17.568,-5.807 -5.909,-1.637 -11.776,-3.589 -17.533,-5.881 m 94.2,-2.964 c -21.248,-9.413 -56.499,-8.132 -84.247,-21.756 -6.35,-3.123 -12.798,-7.002 -19.343,-11.603 l 13.073,-5.389 c 3.583,2.362 7.122,4.479 10.632,6.361 15.033,8.025 31.609,12.001 47.615,15.21 16.034,3.221 30.153,6.22 37.853,12.241 5.397,4.277 6.254,10.1 5.799,13.971 0.423,3.897 -0.449,9.706 -5.87,13.954 -7.713,5.992 -21.86,8.925 -37.898,12.07 -16.024,3.149 -32.605,7.046 -47.674,15.003 -3.525,1.86 -7.073,3.969 -10.664,6.311 l -13.06,-5.444 c 6.575,-4.569 13.046,-8.428 19.403,-11.511 27.805,-13.508 63.061,-12.063 84.34,-21.384 5.561,-2.436 8.71,-5.927 10.099,-8.994 -1.358,-3.073 -4.522,-6.581 -10.058,-9.04 m -148.329,1.116 c -5.405,-2.848 -10.999,-5.929 -16.731,-9.168 l 10.092,-4.163 c 1.341,0.817 2.667,1.63 3.977,2.417 6.894,4.144 13.474,7.89 19.766,11.098 5.482,2.807 10.949,5.253 16.293,7.465 -5.362,2.178 -10.832,4.603 -16.328,7.378 -6.306,3.185 -12.913,6.899 -19.807,11.015 -1.319,0.781 -2.647,1.577 -4.001,2.395 l -10.063,-4.201 c 5.753,-3.221 11.349,-6.282 16.774,-9.105 5.349,-2.772 10.549,-5.307 15.601,-7.528 -5.043,-2.254 -10.24,-4.798 -15.573,-7.603 m -46.937,3.256 10.964,-4.517 c 6.022,2.852 12.424,5.853 18.911,8.786 -6.499,2.917 -12.91,5.893 -18.949,8.71 l -10.95,-4.568 c 2.686,-1.113 6.126,-2.534 10.13,-4.181 -3.996,-1.67 -7.43,-3.104 -10.106,-4.23 m -10.171,4.185 c 2.226,0.936 3.871,1.618 3.871,1.618 -0.047,-0.537 -0.084,-1.083 -0.146,-1.618 0.048,-0.521 0.107,-1.057 0.153,-1.592 0,0 -1.652,0.679 -3.878,1.592"
                   style="fill:url(#linearGradient24592);stroke:none"
                   id="path24594"
                   inkscape:connector-curvature="0" /></g></g></g></g></g></g></g></svg>